<svg xmlns="http://www.w3.org/2000/svg" fill="none" viewBox="0 0 1200 800" width="1200" height="800"><defs><clipPath id="assetClipPath_iass_P3t"><path d="m0 0 h 564 a 0,0 0 0 1 0,0 v 196 a 0,0 0 0 1 -0,0 h -564 a 0,0 0 0 1 -0,-0 v -196 a 0,0 0 0 1 0,-0 z" id="path_-wQ-XLGr" fill="#ffffff" /></clipPath></defs><g transform="translate(319 305) rotate(0 282 98) scale(1 1)" opacity="1" data-asset-index="0"><g clip-path="url(#assetClipPath_iass_P3t)" transform="scale(1 1)" data-asset-index="0"><path fill="#000000" d="M72.32 120.40L72.32 75.60L80.90 75.60Q87.68 75.60 91.42 78.45Q95.17 81.30 95.17 86.42L95.17 86.42Q95.17 90.38 92.83 93.01Q90.50 95.63 86.08 96.53L86.08 96.53L86.08 96.91Q90.30 97.74 92.99 100.88Q95.68 104.02 97.02 108.62L97.02 108.62Q98.24 112.85 99.42 115.18Q100.61 117.52 102.05 118.54Q103.49 119.57 105.47 120.02L105.47 120.02L105.47 120.40L102.85 120.40Q100.03 120.40 98.21 119.38Q96.38 118.35 95.10 115.92Q93.82 113.49 92.67 109.20L92.67 109.20Q90.82 102.61 87.74 99.86Q84.67 97.10 80.26 97.10L80.26 97.10L79.87 97.10L79.87 95.95L80.26 95.95Q90.56 95.95 90.56 86.48L90.56 86.48Q90.56 77.14 80.90 77.14L80.90 77.14L76.67 77.14L76.67 120.40L72.32 120.40Z" /><path fill="#000000" d="M146.82 120.40L141.06 120.40L120.06 97.42L139.52 75.60L145.02 75.60L123.97 95.63L146.82 120.40ZM117.76 120.40L113.41 120.40L113.41 75.60L117.76 75.60L117.76 120.40Z" /></g></g></svg>